<?xml version="1.0" encoding="UTF-8" standalone="no"?>
<!-- Created with Inkscape (http://www.inkscape.org/) -->

<svg
   width="1076.8358"
   height="1077.6833"
   viewBox="0 0 1076.8358 1077.6833"
   version="1.1"
   id="svg1"
   xml:space="preserve"
   xmlns:inkscape="http://www.inkscape.org/namespaces/inkscape"
   xmlns:sodipodi="http://sodipodi.sourceforge.net/DTD/sodipodi-0.dtd"
   xmlns="http://www.w3.org/2000/svg"
   xmlns:svg="http://www.w3.org/2000/svg"><sodipodi:namedview
     id="namedview1"
     pagecolor="#ffffff"
     bordercolor="#000000"
     borderopacity="0.25"
     inkscape:showpageshadow="2"
     inkscape:pageopacity="0.0"
     inkscape:pagecheckerboard="0"
     inkscape:deskcolor="#d1d1d1"
     inkscape:document-units="px" /><defs
     id="defs1" /><g
     inkscape:label="Calque 1"
     inkscape:groupmode="layer"
     id="layer1"
     transform="translate(1448.082,282.84167)"><g
       id="g35"
       style="fill:#000000"
       inkscape:export-filename="g35.svg"
       inkscape:export-xdpi="96"
       inkscape:export-ydpi="96"><g
         id="g1"
         style="clip-rule:evenodd;fill:#000000;fill-rule:evenodd;image-rendering:optimizeQuality;shape-rendering:geometricPrecision;text-rendering:geometricPrecision"
         transform="translate(-1765.0298,-825.23834)"><path
           style="opacity:1;fill:#000000"
           fill="#f9faf9"
           d="m 839.5,542.5 c 110.526,-2.04 212.53,26.127 306,84.5 6.47,3.986 12.47,8.486 18,13.5 -25.96,52.407 -56.13,102.073 -90.5,149 -33.15,43.826 -67.82,86.493 -104,128 -45.965,50.966 -92.298,101.63 -139,152 -17.716,20.21 -35.216,40.54 -52.5,61 C 607.962,1012.79 549.796,853.453 603,652.5 c 5.019,-19.56 11.519,-38.56 19.5,-57 68.783,-32.613 141.116,-50.28 217,-53 z m 31,187 c 37.411,-1.043 63.911,15.291 79.5,49 12.055,39.504 1.222,71.004 -32.5,94.5 -32.361,16.518 -62.694,13.518 -91,-9 -26.73,-27.326 -32.23,-58.493 -16.5,-93.5 13.883,-23.068 34.05,-36.734 60.5,-41 z m -124,183 c 33.297,0.129 49.464,16.796 48.5,50 -7.87,26.196 -25.37,37.363 -52.5,33.5 -19.266,-6.829 -29.933,-20.496 -32,-41 2.144,-22.636 14.144,-36.802 36,-42.5 z"
           id="path1" /></g><g
         id="g2"
         style="clip-rule:evenodd;fill:#000000;fill-rule:evenodd;image-rendering:optimizeQuality;shape-rendering:geometricPrecision;text-rendering:geometricPrecision"
         transform="translate(-1765.0298,-825.23834)"><path
           style="opacity:1;fill:#000000"
           fill="#f9faf9"
           d="m 613.5,599.5 c 1.073,0.751 1.24,1.751 0.5,3 -51.028,101.856 -65.028,208.523 -42,320 21.31,81.48 63.143,150.31 125.5,206.5 15.948,14.12 32.615,27.29 50,39.5 -35.222,44.75 -66.722,92.09 -94.5,142 -25.527,46.58 -43.527,95.91 -54,148 -5.281,30.84 -7.448,61.84 -6.5,93 -130.404,-74.94 -216.237,-184.94 -257.5,-330 -37.219,-149.14 -16.886,-289.803 61,-422 54.201,-86.706 126.701,-153.373 217.5,-200 z"
           id="path2" /></g><g
         id="g3"
         style="clip-rule:evenodd;fill:#000000;fill-rule:evenodd;image-rendering:optimizeQuality;shape-rendering:geometricPrecision;text-rendering:geometricPrecision"
         transform="translate(-1765.0298,-825.23834)"><path
           style="opacity:1;fill:#000000"
           fill="#f9faf9"
           d="m 1203.5,670.5 c 91.84,78.608 151.34,177.275 178.5,296 32.16,164 -1.51,312.67 -101,446 -66.41,83.73 -150.08,143.4 -251,179 15.6,-108.72 -7.74,-208.05 -70,-298 -37.441,-52.77 -82.274,-98.27 -134.5,-136.5 18.399,-23.74 37.565,-46.91 57.5,-69.5 50.704,-55.7 101.037,-111.702 151,-168 44.98,-52.315 86.31,-107.315 124,-165 16.97,-26.936 32.14,-54.936 45.5,-84 z"
           id="path3" /></g><g
         id="g31"
         style="clip-rule:evenodd;fill:#000000;fill-rule:evenodd;image-rendering:optimizeQuality;shape-rendering:geometricPrecision;text-rendering:geometricPrecision"
         transform="translate(-1765.0298,-825.23834)"><path
           style="opacity:1;fill:#000000"
           fill="#f9faf9"
           d="m 788.5,1203.5 c 32.048,26.55 60.882,56.21 86.5,89 7.227,10.23 14.06,20.73 20.5,31.5 -71.124,20.71 -142.291,41.21 -213.5,61.5 26.565,-66.16 62.065,-126.83 106.5,-182 z"
           id="path31" /></g><g
         id="g33"
         style="clip-rule:evenodd;fill:#000000;fill-rule:evenodd;image-rendering:optimizeQuality;shape-rendering:geometricPrecision;text-rendering:geometricPrecision"
         transform="translate(-1765.0298,-825.23834)"><path
           style="opacity:1;fill:#000000"
           fill="#f9faf9"
           d="m 908.5,1357.5 c 3.724,-0.45 5.891,1.22 6.5,5 18.741,44.97 30.908,91.63 36.5,140 -96.994,5.78 -193.994,11.45 -291,17 -0.356,-27.53 1.81,-54.87 6.5,-82 1.019,-7.28 2.853,-14.28 5.5,-21 78.857,-19.38 157.524,-39.05 236,-59 z"
           id="path33" /></g><g
         id="g34"
         style="clip-rule:evenodd;fill:#000000;fill-rule:evenodd;image-rendering:optimizeQuality;shape-rendering:geometricPrecision;text-rendering:geometricPrecision"
         transform="translate(-1765.0298,-825.23834)"><path
           style="opacity:1;fill:#000000"
           fill="#f9faf9"
           d="m 932.5,1542.5 c 6.667,0 13.333,0 20,0 -0.414,23.47 -2.414,46.8 -6,70 -94.871,15.61 -187.538,7.11 -278,-25.5 -3.25,-10.91 -5.25,-22.07 -6,-33.5 90.182,-3.03 180.182,-6.7 270,-11 z"
           id="path34" /></g></g></g></svg>
