<?xml version="1.0" encoding="UTF-8"?>
<!DOCTYPE svg PUBLIC "-//W3C//DTD SVG 1.1//EN" "http://www.w3.org/Graphics/SVG/1.1/DTD/svg11.dtd">
<svg xmlns="http://www.w3.org/2000/svg" version="1.1" width="3973px" height="2000px" style="shape-rendering:geometricPrecision; text-rendering:geometricPrecision; image-rendering:optimizeQuality; fill-rule:evenodd; clip-rule:evenodd" xmlns:xlink="http://www.w3.org/1999/xlink">
<g><path style="opacity:1" fill="#f9faf9" d="M 839.5,542.5 C 950.026,540.46 1052.03,568.627 1145.5,627C 1151.97,630.986 1157.97,635.486 1163.5,640.5C 1137.54,692.907 1107.37,742.573 1073,789.5C 1039.85,833.326 1005.18,875.993 969,917.5C 923.035,968.466 876.702,1019.13 830,1069.5C 812.284,1089.71 794.784,1110.04 777.5,1130.5C 607.962,1012.79 549.796,853.453 603,652.5C 608.019,632.94 614.519,613.94 622.5,595.5C 691.283,562.887 763.616,545.22 839.5,542.5 Z M 870.5,729.5 C 907.911,728.457 934.411,744.791 950,778.5C 962.055,818.004 951.222,849.504 917.5,873C 885.139,889.518 854.806,886.518 826.5,864C 799.77,836.674 794.27,805.507 810,770.5C 823.883,747.432 844.05,733.766 870.5,729.5 Z M 746.5,912.5 C 779.797,912.629 795.964,929.296 795,962.5C 787.13,988.696 769.63,999.863 742.5,996C 723.234,989.171 712.567,975.504 710.5,955C 712.644,932.364 724.644,918.198 746.5,912.5 Z"/></g>
<g><path style="opacity:1" fill="#f9faf9" d="M 613.5,599.5 C 614.573,600.251 614.74,601.251 614,602.5C 562.972,704.356 548.972,811.023 572,922.5C 593.31,1003.98 635.143,1072.81 697.5,1129C 713.448,1143.12 730.115,1156.29 747.5,1168.5C 712.278,1213.25 680.778,1260.59 653,1310.5C 627.473,1357.08 609.473,1406.41 599,1458.5C 593.719,1489.34 591.552,1520.34 592.5,1551.5C 462.096,1476.56 376.263,1366.56 335,1221.5C 297.781,1072.36 318.114,931.697 396,799.5C 450.201,712.794 522.701,646.127 613.5,599.5 Z"/></g>
<g><path style="opacity:1" fill="#f9faf9" d="M 1203.5,670.5 C 1295.34,749.108 1354.84,847.775 1382,966.5C 1414.16,1130.5 1380.49,1279.17 1281,1412.5C 1214.59,1496.23 1130.92,1555.9 1030,1591.5C 1045.6,1482.78 1022.26,1383.45 960,1293.5C 922.559,1240.73 877.726,1195.23 825.5,1157C 843.899,1133.26 863.065,1110.09 883,1087.5C 933.704,1031.8 984.037,975.798 1034,919.5C 1078.98,867.185 1120.31,812.185 1158,754.5C 1174.97,727.564 1190.14,699.564 1203.5,670.5 Z"/></g>
<g><path style="opacity:1" fill="#f9faf9" d="M 2996.5,685.5 C 3003.07,686.224 3007.9,689.557 3011,695.5C 3015.91,703.903 3018.58,712.903 3019,722.5C 3001.65,737.76 2982.82,750.927 2962.5,762C 2959.7,762.755 2957.03,762.422 2954.5,761C 2946.51,753.331 2942.68,744.164 2943,733.5C 2958.59,714.727 2976.43,698.727 2996.5,685.5 Z"/></g>
<g><path style="opacity:1" fill="#f9faf9" d="M 3200.5,685.5 C 3207.07,686.224 3211.9,689.557 3215,695.5C 3219.91,703.903 3222.58,712.903 3223,722.5C 3205.65,737.76 3186.82,750.927 3166.5,762C 3163.7,762.755 3161.03,762.422 3158.5,761C 3150.51,753.331 3146.68,744.164 3147,733.5C 3162.59,714.727 3180.43,698.727 3200.5,685.5 Z"/></g>
<g><path style="opacity:1" fill="#f9faf9" d="M 2553.5,783.5 C 2566.5,783.333 2579.5,783.5 2592.5,784C 2602.38,784.803 2611.71,787.469 2620.5,792C 2623.43,794.264 2625.6,797.098 2627,800.5C 2629.19,813.253 2626.02,824.419 2617.5,834C 2609.51,830.897 2601.17,828.564 2592.5,827C 2579.23,824.51 2566.57,826.177 2554.5,832C 2549.58,836.001 2546.92,841.168 2546.5,847.5C 2547.36,857.592 2550.53,866.925 2556,875.5C 2572.62,897.786 2589.62,919.786 2607,941.5C 2624.78,965.624 2631.45,992.624 2627,1022.5C 2625.16,1049.05 2612.66,1068.55 2589.5,1081C 2571.33,1087.19 2552.67,1089.19 2533.5,1087C 2492.61,1080.36 2483.45,1059.52 2506,1024.5C 2522.02,1036.77 2539.85,1040.6 2559.5,1036C 2569.4,1031.41 2574.57,1023.58 2575,1012.5C 2576.25,999.151 2573.25,986.818 2566,975.5C 2548.67,952.167 2531.33,928.833 2514,905.5C 2494.76,880.045 2489.76,852.045 2499,821.5C 2505.5,807 2516,796.5 2530.5,790C 2538.09,787.074 2545.76,784.907 2553.5,783.5 Z"/></g>
<g><path style="opacity:1" fill="#f9faf9" d="M 1573.5,786.5 C 1585.83,786.5 1598.17,786.5 1610.5,786.5C 1610.03,864.853 1610.53,943.187 1612,1021.5C 1613.87,1036.54 1622.37,1043.87 1637.5,1043.5C 1645.74,1043.6 1653.57,1041.93 1661,1038.5C 1661.33,955.833 1661.67,873.167 1662,790.5C 1662.9,789.299 1664.07,788.465 1665.5,788C 1680.46,786.645 1695.46,786.145 1710.5,786.5C 1710.67,881.834 1710.5,977.167 1710,1072.5C 1687.15,1083.51 1662.98,1088.84 1637.5,1088.5C 1587.38,1089.87 1561.88,1065.54 1561,1015.5C 1560.33,940.833 1560.33,866.167 1561,791.5C 1561.37,790.584 1561.87,789.75 1562.5,789C 1566.28,788.082 1569.95,787.249 1573.5,786.5 Z"/></g>
<g><path style="opacity:1" fill="#f9faf9" d="M 1747.5,786.5 C 1761.83,786.5 1776.17,786.5 1790.5,786.5C 1806.36,828.249 1822.53,869.916 1839,911.5C 1845.11,930.953 1850.45,950.619 1855,970.5C 1851.75,911.571 1850.75,852.571 1852,793.5C 1852.21,790.577 1853.71,788.744 1856.5,788C 1871.13,786.627 1885.79,786.127 1900.5,786.5C 1901,884.582 1900.5,982.582 1899,1080.5C 1898.17,1081.33 1897.33,1082.17 1896.5,1083C 1882.16,1083.83 1867.82,1083.67 1853.5,1082.5C 1838.76,1045.13 1823.93,1007.79 1809,970.5C 1800.6,945.895 1793.6,920.895 1788,895.5C 1789,917.48 1790,939.48 1791,961.5C 1791.67,1000.5 1791.67,1039.5 1791,1078.5C 1789.93,1081.56 1787.77,1083.06 1784.5,1083C 1770.5,1083.5 1756.5,1083.67 1742.5,1083.5C 1742.33,986.166 1742.5,888.833 1743,791.5C 1744.02,789.313 1745.52,787.646 1747.5,786.5 Z"/></g>
<g><path style="opacity:1" fill="#f9faf9" d="M 1952.5,786.5 C 1962.5,786.5 1972.5,786.5 1982.5,786.5C 1982.67,884.501 1982.5,982.501 1982,1080.5C 1980.51,1082 1978.68,1082.84 1976.5,1083C 1962.17,1083.5 1947.84,1083.67 1933.5,1083.5C 1933.33,988.499 1933.5,893.499 1934,798.5C 1934.32,795.027 1935.82,792.194 1938.5,790C 1943.14,788.223 1947.8,787.056 1952.5,786.5 Z"/></g>
<g><path style="opacity:1" fill="#f9faf9" d="M 2010.5,786.5 C 2026.17,786.5 2041.83,786.5 2057.5,786.5C 2070.55,869.458 2082.72,952.458 2094,1035.5C 2102.72,954.18 2113.72,873.18 2127,792.5C 2127.83,789.667 2129.67,787.833 2132.5,787C 2148.16,786.5 2163.83,786.333 2179.5,786.5C 2161.22,885.526 2142.72,984.526 2124,1083.5C 2107.98,1086.17 2091.81,1087.01 2075.5,1086C 2064,1082.9 2057.17,1075.4 2055,1063.5C 2037.48,976.055 2021.15,888.388 2006,800.5C 2005.33,796.833 2005.33,793.167 2006,789.5C 2007.41,788.219 2008.91,787.219 2010.5,786.5 Z"/></g>
<g><path style="opacity:1" fill="#f9faf9" d="M 2343.5,786.5 C 2362.5,786.333 2381.5,786.5 2400.5,787C 2419.87,787.229 2436.7,793.729 2451,806.5C 2460.76,818.766 2466.43,832.766 2468,848.5C 2470.45,868.945 2469.78,889.278 2466,909.5C 2462.79,927.43 2454.29,942.263 2440.5,954C 2459.14,981.249 2470.31,1011.42 2474,1044.5C 2475.49,1055.8 2476.15,1067.14 2476,1078.5C 2475.89,1080.85 2474.72,1082.35 2472.5,1083C 2469.25,1084.04 2465.91,1084.7 2462.5,1085C 2449.16,1085.34 2435.83,1085.17 2422.5,1084.5C 2423.03,1050.66 2417.19,1017.99 2405,986.5C 2402.47,980.592 2399.3,975.092 2395.5,970C 2392.52,969.502 2389.52,969.335 2386.5,969.5C 2386.67,1005.83 2386.5,1042.17 2386,1078.5C 2384.93,1081.56 2382.77,1083.06 2379.5,1083C 2365.5,1083.5 2351.5,1083.67 2337.5,1083.5C 2337.33,986.499 2337.5,889.499 2338,792.5C 2339.02,789.65 2340.85,787.65 2343.5,786.5 Z M 2386.5,828.5 C 2391.18,828.334 2395.85,828.501 2400.5,829C 2404.19,830.089 2407.02,832.255 2409,835.5C 2411.59,840.535 2413.26,845.868 2414,851.5C 2416.03,868.541 2415.7,885.541 2413,902.5C 2411.35,918.658 2402.52,926.325 2386.5,925.5C 2386.5,893.167 2386.5,860.833 2386.5,828.5 Z"/></g>
<g><path style="opacity:1" fill="#f9faf9" d="M 2673.5,786.5 C 2683.5,786.5 2693.5,786.5 2703.5,786.5C 2703.67,884.501 2703.5,982.501 2703,1080.5C 2701.51,1082 2699.68,1082.84 2697.5,1083C 2683.17,1083.5 2668.84,1083.67 2654.5,1083.5C 2654.33,988.499 2654.5,893.499 2655,798.5C 2655.32,795.027 2656.82,792.194 2659.5,790C 2664.14,788.223 2668.8,787.056 2673.5,786.5 Z"/></g>
<g><path style="opacity:1" fill="#f9faf9" d="M 2733.5,786.5 C 2782.83,786.5 2832.17,786.5 2881.5,786.5C 2881.67,800.171 2881.5,813.837 2881,827.5C 2880.63,828.416 2880.13,829.25 2879.5,830C 2862.59,831.471 2845.59,831.971 2828.5,831.5C 2828.67,914.167 2828.5,996.834 2828,1079.5C 2826.44,1081.77 2824.28,1082.93 2821.5,1083C 2807.5,1083.5 2793.5,1083.67 2779.5,1083.5C 2779.5,999.5 2779.5,915.5 2779.5,831.5C 2762.5,831.5 2745.5,831.5 2728.5,831.5C 2728.33,817.829 2728.5,804.163 2729,790.5C 2729.91,788.391 2731.41,787.058 2733.5,786.5 Z"/></g>
<g><path style="opacity:1" fill="#f9faf9" d="M 2911.5,786.5 C 2946.5,786.5 2981.5,786.5 3016.5,786.5C 3016.67,798.171 3016.5,809.838 3016,821.5C 3015.77,824.458 3014.6,826.958 3012.5,829C 2993.17,829.5 2973.84,829.667 2954.5,829.5C 2954.5,853.167 2954.5,876.833 2954.5,900.5C 2971.5,900.5 2988.5,900.5 3005.5,900.5C 3005.82,913.205 3005.32,925.872 3004,938.5C 3003.55,940.519 3002.72,942.352 3001.5,944C 2985.9,945.453 2970.24,945.953 2954.5,945.5C 2954.5,977.167 2954.5,1008.83 2954.5,1040.5C 2974.17,1040.5 2993.83,1040.5 3013.5,1040.5C 3013.67,1052.5 3013.5,1064.5 3013,1076.5C 3012.7,1078.89 3011.86,1081.06 3010.5,1083C 2975.5,1083.5 2940.5,1083.67 2905.5,1083.5C 2905.33,986.833 2905.5,890.166 2906,793.5C 2906.94,790.402 2908.77,788.069 2911.5,786.5 Z"/></g>
<g><path style="opacity:1" fill="#f9faf9" d="M 3115.5,786.5 C 3150.5,786.5 3185.5,786.5 3220.5,786.5C 3220.67,798.171 3220.5,809.838 3220,821.5C 3219.77,824.458 3218.6,826.958 3216.5,829C 3197.17,829.5 3177.84,829.667 3158.5,829.5C 3158.5,853.167 3158.5,876.833 3158.5,900.5C 3175.5,900.5 3192.5,900.5 3209.5,900.5C 3209.82,913.205 3209.32,925.872 3208,938.5C 3207.55,940.519 3206.72,942.352 3205.5,944C 3189.9,945.453 3174.24,945.953 3158.5,945.5C 3158.5,977.167 3158.5,1008.83 3158.5,1040.5C 3178.17,1040.5 3197.83,1040.5 3217.5,1040.5C 3217.67,1052.5 3217.5,1064.5 3217,1076.5C 3216.7,1078.89 3215.86,1081.06 3214.5,1083C 3179.5,1083.5 3144.5,1083.67 3109.5,1083.5C 3109.33,986.833 3109.5,890.166 3110,793.5C 3110.94,790.402 3112.77,788.069 3115.5,786.5 Z"/></g>
<g><path style="opacity:1" fill="#f9faf9" d="M 3239.5,786.5 C 3255.17,786.5 3270.83,786.5 3286.5,786.5C 3299.55,869.458 3311.72,952.458 3323,1035.5C 3331.72,954.18 3342.72,873.18 3356,792.5C 3356.83,789.667 3358.67,787.833 3361.5,787C 3377.16,786.5 3392.83,786.333 3408.5,786.5C 3390.22,885.526 3371.72,984.526 3353,1083.5C 3336.98,1086.17 3320.81,1087.01 3304.5,1086C 3293,1082.9 3286.17,1075.4 3284,1063.5C 3266.48,976.055 3250.15,888.388 3235,800.5C 3234.33,796.833 3234.33,793.167 3235,789.5C 3236.41,788.219 3237.91,787.219 3239.5,786.5 Z"/></g>
<g><path style="opacity:1" fill="#f9faf9" d="M 3436.5,786.5 C 3455.5,786.333 3474.5,786.5 3493.5,787C 3512.87,787.229 3529.7,793.729 3544,806.5C 3553.76,818.766 3559.43,832.766 3561,848.5C 3563.45,868.945 3562.78,889.278 3559,909.5C 3555.79,927.43 3547.29,942.263 3533.5,954C 3552.14,981.249 3563.31,1011.42 3567,1044.5C 3568.49,1055.8 3569.15,1067.14 3569,1078.5C 3568.89,1080.85 3567.72,1082.35 3565.5,1083C 3562.25,1084.04 3558.91,1084.7 3555.5,1085C 3542.16,1085.34 3528.83,1085.17 3515.5,1084.5C 3516.03,1050.66 3510.19,1017.99 3498,986.5C 3495.47,980.592 3492.3,975.092 3488.5,970C 3485.52,969.502 3482.52,969.335 3479.5,969.5C 3479.67,1005.83 3479.5,1042.17 3479,1078.5C 3477.93,1081.56 3475.77,1083.06 3472.5,1083C 3458.5,1083.5 3444.5,1083.67 3430.5,1083.5C 3430.33,986.499 3430.5,889.499 3431,792.5C 3432.02,789.65 3433.85,787.65 3436.5,786.5 Z M 3479.5,828.5 C 3484.18,828.334 3488.85,828.501 3493.5,829C 3497.19,830.089 3500.02,832.255 3502,835.5C 3504.59,840.535 3506.26,845.868 3507,851.5C 3509.03,868.541 3508.7,885.541 3506,902.5C 3504.35,918.658 3495.52,926.325 3479.5,925.5C 3479.5,893.167 3479.5,860.833 3479.5,828.5 Z"/></g>
<g><path style="opacity:1" fill="#f9faf9" d="M 3582.5,786.5 C 3597.41,786.176 3612.24,786.509 3627,787.5C 3637.75,829.275 3645.42,871.608 3650,914.5C 3655.43,872.68 3663.43,831.346 3674,790.5C 3677.78,788.085 3681.94,786.918 3686.5,787C 3699.18,786.167 3711.85,786.334 3724.5,787.5C 3707.02,844.736 3689.86,902.069 3673,959.5C 3672.67,999.833 3672.33,1040.17 3672,1080.5C 3670.51,1082 3668.68,1082.84 3666.5,1083C 3652.5,1083.5 3638.5,1083.67 3624.5,1083.5C 3624.67,1042.5 3624.5,1001.5 3624,960.5C 3606.06,904.192 3588.23,847.859 3570.5,791.5C 3570.87,790.098 3571.7,789.098 3573,788.5C 3576.32,787.95 3579.49,787.283 3582.5,786.5 Z"/></g>
<g><path style="opacity:1" fill="#f9faf9" d="M 2205.5,787.5 C 2241.17,787.5 2276.83,787.5 2312.5,787.5C 2312.67,798.505 2312.5,809.505 2312,820.5C 2311.88,823.932 2310.72,826.932 2308.5,829.5C 2288.88,830.488 2269.21,830.821 2249.5,830.5C 2249.5,853.833 2249.5,877.167 2249.5,900.5C 2266.83,900.5 2284.17,900.5 2301.5,900.5C 2301.72,912.863 2301.22,925.197 2300,937.5C 2299.77,939.78 2298.93,941.78 2297.5,943.5C 2281.55,944.485 2265.55,944.818 2249.5,944.5C 2249.5,976.5 2249.5,1008.5 2249.5,1040.5C 2269.5,1040.5 2289.5,1040.5 2309.5,1040.5C 2309.9,1053.88 2309.4,1067.22 2308,1080.5C 2307.5,1081.67 2306.67,1082.5 2305.5,1083C 2270.83,1083.5 2236.17,1083.67 2201.5,1083.5C 2201.33,986.833 2201.5,890.166 2202,793.5C 2202.56,791.113 2203.73,789.113 2205.5,787.5 Z"/></g>
<g><path style="opacity:1" fill="#f9faf9" d="M 2079.5,1179.5 C 2099.96,1177.16 2119.3,1180.66 2137.5,1190C 2134.04,1198.42 2130.2,1206.59 2126,1214.5C 2112.9,1207.88 2099.06,1205.38 2084.5,1207C 2075.46,1210.79 2072.63,1217.29 2076,1226.5C 2077.83,1228.33 2079.67,1230.17 2081.5,1232C 2096.32,1239.24 2110.65,1247.24 2124.5,1256C 2137.72,1269.54 2141.22,1285.37 2135,1303.5C 2127.29,1318.79 2114.79,1327.29 2097.5,1329C 2078.41,1331.59 2060.07,1329.09 2042.5,1321.5C 2041.33,1311.18 2041.17,1300.85 2042,1290.5C 2058.34,1299.63 2075.84,1303.46 2094.5,1302C 2104.7,1299.1 2108.2,1292.6 2105,1282.5C 2103.86,1280.39 2102.36,1278.56 2100.5,1277C 2086.01,1269.25 2071.67,1261.25 2057.5,1253C 2045.24,1241.8 2040.74,1227.97 2044,1211.5C 2046.25,1199.57 2052.75,1190.74 2063.5,1185C 2068.85,1182.83 2074.18,1181 2079.5,1179.5 Z"/></g>
<g><path style="opacity:1" fill="#f9faf9" d="M 2267.5,1179.5 C 2287.96,1177.16 2307.3,1180.66 2325.5,1190C 2322.04,1198.42 2318.2,1206.59 2314,1214.5C 2300.9,1207.88 2287.06,1205.38 2272.5,1207C 2263.46,1210.79 2260.63,1217.29 2264,1226.5C 2265.83,1228.33 2267.67,1230.17 2269.5,1232C 2284.32,1239.24 2298.65,1247.24 2312.5,1256C 2325.72,1269.54 2329.22,1285.37 2323,1303.5C 2315.29,1318.79 2302.79,1327.29 2285.5,1329C 2266.41,1331.59 2248.07,1329.09 2230.5,1321.5C 2229.33,1311.18 2229.17,1300.85 2230,1290.5C 2246.34,1299.63 2263.84,1303.46 2282.5,1302C 2292.7,1299.1 2296.2,1292.6 2293,1282.5C 2291.86,1280.39 2290.36,1278.56 2288.5,1277C 2274.01,1269.25 2259.67,1261.25 2245.5,1253C 2233.24,1241.8 2228.74,1227.97 2232,1211.5C 2234.25,1199.57 2240.75,1190.74 2251.5,1185C 2256.85,1182.83 2262.18,1181 2267.5,1179.5 Z"/></g>
<g><path style="opacity:1" fill="#f9faf9" d="M 2550.5,1179.5 C 2566.57,1178.17 2582.23,1180.01 2597.5,1185C 2601.32,1186.07 2604.65,1187.91 2607.5,1190.5C 2604.26,1198.72 2600.93,1206.89 2597.5,1215C 2590.88,1212.9 2584.21,1210.57 2577.5,1208C 2552.61,1201.86 2536.77,1211.02 2530,1235.5C 2520.56,1295.23 2544.39,1315.23 2601.5,1295.5C 2601.82,1304.75 2601.48,1313.92 2600.5,1323C 2581.3,1329.6 2561.63,1331.27 2541.5,1328C 2516.59,1320.75 2501.76,1304.25 2497,1278.5C 2492.75,1256.56 2494.75,1235.23 2503,1214.5C 2513.05,1194.95 2528.88,1183.28 2550.5,1179.5 Z"/></g>
<g><path style="opacity:1" fill="#f9faf9" d="M 1726.5,1180.5 C 1739.5,1180.33 1752.5,1180.5 1765.5,1181C 1782.96,1229.43 1800.3,1277.93 1817.5,1326.5C 1805.85,1327.5 1794.19,1327.83 1782.5,1327.5C 1779.17,1315.83 1775.83,1304.17 1772.5,1292.5C 1755.16,1292.33 1737.83,1292.5 1720.5,1293C 1716.63,1304.27 1712.97,1315.6 1709.5,1327C 1697.83,1327.67 1686.17,1327.67 1674.5,1327C 1692.26,1278.32 1709.59,1229.48 1726.5,1180.5 Z M 1745.5,1206.5 C 1752.43,1226.2 1758.77,1246.2 1764.5,1266.5C 1752.5,1266.5 1740.5,1266.5 1728.5,1266.5C 1734.48,1246.58 1740.15,1226.58 1745.5,1206.5 Z"/></g>
<g><path style="opacity:1" fill="#f9faf9" d="M 2388.5,1180.5 C 2401.5,1180.33 2414.5,1180.5 2427.5,1181C 2444.96,1229.43 2462.3,1277.93 2479.5,1326.5C 2467.85,1327.5 2456.19,1327.83 2444.5,1327.5C 2441.17,1315.83 2437.83,1304.17 2434.5,1292.5C 2417.16,1292.33 2399.83,1292.5 2382.5,1293C 2378.63,1304.27 2374.97,1315.6 2371.5,1327C 2359.83,1327.67 2348.17,1327.67 2336.5,1327C 2354.26,1278.32 2371.59,1229.48 2388.5,1180.5 Z M 2407.5,1206.5 C 2414.43,1226.2 2420.77,1246.2 2426.5,1266.5C 2414.5,1266.5 2402.5,1266.5 2390.5,1266.5C 2396.48,1246.58 2402.15,1226.58 2407.5,1206.5 Z"/></g>
<g><path style="opacity:1" fill="#f9faf9" d="M 2789.5,1180.5 C 2802.5,1180.33 2815.5,1180.5 2828.5,1181C 2845.96,1229.43 2863.3,1277.93 2880.5,1326.5C 2868.85,1327.5 2857.19,1327.83 2845.5,1327.5C 2842.17,1315.83 2838.83,1304.17 2835.5,1292.5C 2818.16,1292.33 2800.83,1292.5 2783.5,1293C 2779.63,1304.27 2775.97,1315.6 2772.5,1327C 2760.83,1327.67 2749.17,1327.67 2737.5,1327C 2755.26,1278.32 2772.59,1229.48 2789.5,1180.5 Z M 2808.5,1206.5 C 2815.43,1226.2 2821.77,1246.2 2827.5,1266.5C 2815.5,1266.5 2803.5,1266.5 2791.5,1266.5C 2797.48,1246.58 2803.15,1226.58 2808.5,1206.5 Z"/></g>
<g><path style="opacity:1" fill="#f9faf9" d="M 1560.5,1181.5 C 1581.17,1181.33 1601.84,1181.5 1622.5,1182C 1652.52,1187.15 1665.69,1204.99 1662,1235.5C 1658.01,1258.82 1644.18,1271.99 1620.5,1275C 1611.17,1275.5 1601.84,1275.67 1592.5,1275.5C 1592.5,1292.83 1592.5,1310.17 1592.5,1327.5C 1581.83,1327.5 1571.17,1327.5 1560.5,1327.5C 1560.5,1278.83 1560.5,1230.17 1560.5,1181.5 Z M 1592.5,1206.5 C 1600.2,1206.52 1607.86,1207.02 1615.5,1208C 1625.43,1210.93 1630.43,1217.6 1630.5,1228C 1629.88,1239.62 1623.88,1246.62 1612.5,1249C 1605.84,1249.71 1599.18,1250.21 1592.5,1250.5C 1592.5,1235.83 1592.5,1221.17 1592.5,1206.5 Z"/></g>
<g><path style="opacity:1" fill="#f9faf9" d="M 1839.5,1181.5 C 1859.5,1181.33 1879.5,1181.5 1899.5,1182C 1933.71,1187.22 1946.88,1206.72 1939,1240.5C 1933.69,1250.97 1925.86,1258.97 1915.5,1264.5C 1929.13,1285.59 1943.13,1306.43 1957.5,1327C 1945.5,1327.67 1933.5,1327.67 1921.5,1327C 1909.83,1308.67 1898.17,1290.33 1886.5,1272C 1881.51,1271.5 1876.51,1271.33 1871.5,1271.5C 1871.5,1290.17 1871.5,1308.83 1871.5,1327.5C 1860.83,1327.5 1850.17,1327.5 1839.5,1327.5C 1839.5,1278.83 1839.5,1230.17 1839.5,1181.5 Z M 1871.5,1206.5 C 1878.5,1206.92 1885.5,1207.42 1892.5,1208C 1906.7,1210.89 1911.87,1219.39 1908,1233.5C 1904.96,1240.11 1899.79,1243.95 1892.5,1245C 1885.51,1245.67 1878.51,1246.17 1871.5,1246.5C 1871.5,1233.17 1871.5,1219.83 1871.5,1206.5 Z"/></g>
<g><path style="opacity:1" fill="#f9faf9" d="M 1978.5,1181.5 C 1989.17,1181.5 1999.83,1181.5 2010.5,1181.5C 2010.5,1230.17 2010.5,1278.83 2010.5,1327.5C 1999.83,1327.5 1989.17,1327.5 1978.5,1327.5C 1978.5,1278.83 1978.5,1230.17 1978.5,1181.5 Z"/></g>
<g><path style="opacity:1" fill="#f9faf9" d="M 2636.5,1181.5 C 2647.17,1181.5 2657.83,1181.5 2668.5,1181.5C 2668.5,1221.5 2668.5,1261.5 2668.5,1301.5C 2688.17,1301.5 2707.83,1301.5 2727.5,1301.5C 2727.5,1310.17 2727.5,1318.83 2727.5,1327.5C 2697.17,1327.5 2666.83,1327.5 2636.5,1327.5C 2636.5,1278.83 2636.5,1230.17 2636.5,1181.5 Z"/></g>
<g><path style="opacity:1" fill="#f9faf9" d="M 2884.5,1181.5 C 2896.19,1181.17 2907.85,1181.5 2919.5,1182.5C 2928.91,1201.66 2938.58,1220.66 2948.5,1239.5C 2958.42,1220.66 2968.09,1201.66 2977.5,1182.5C 2989.17,1181.17 3000.83,1181.17 3012.5,1182.5C 2996.41,1211.67 2980.58,1241.01 2965,1270.5C 2964.5,1289.5 2964.33,1308.5 2964.5,1327.5C 2953.83,1327.5 2943.17,1327.5 2932.5,1327.5C 2932.67,1308.83 2932.5,1290.16 2932,1271.5C 2915.89,1241.6 2900.05,1211.6 2884.5,1181.5 Z"/></g>
<g><path style="opacity:1" fill="#f9faf9" d="M 788.5,1203.5 C 820.548,1230.05 849.382,1259.71 875,1292.5C 882.227,1302.73 889.06,1313.23 895.5,1324C 824.376,1344.71 753.209,1365.21 682,1385.5C 708.565,1319.34 744.065,1258.67 788.5,1203.5 Z"/></g>
<g><path style="opacity:1" fill="#f9faf9" d="M 2156.5,1260.5 C 2174.5,1260.5 2192.5,1260.5 2210.5,1260.5C 2210.5,1269.17 2210.5,1277.83 2210.5,1286.5C 2192.5,1286.5 2174.5,1286.5 2156.5,1286.5C 2156.5,1277.83 2156.5,1269.17 2156.5,1260.5 Z"/></g>
<g><path style="opacity:1" fill="#f9faf9" d="M 908.5,1357.5 C 912.224,1357.05 914.391,1358.72 915,1362.5C 933.741,1407.47 945.908,1454.13 951.5,1502.5C 854.506,1508.28 757.506,1513.95 660.5,1519.5C 660.144,1491.97 662.31,1464.63 667,1437.5C 668.019,1430.22 669.853,1423.22 672.5,1416.5C 751.357,1397.12 830.024,1377.45 908.5,1357.5 Z"/></g>
<g><path style="opacity:1" fill="#f9faf9" d="M 932.5,1542.5 C 939.167,1542.5 945.833,1542.5 952.5,1542.5C 952.086,1565.97 950.086,1589.3 946.5,1612.5C 851.629,1628.11 758.962,1619.61 668.5,1587C 665.25,1576.09 663.25,1564.93 662.5,1553.5C 752.682,1550.47 842.682,1546.8 932.5,1542.5 Z"/></g>
</svg>
