<?xml version="1.0" encoding="UTF-8" standalone="no"?>
<!-- Created with Inkscape (http://www.inkscape.org/) -->

<svg
   width="2164.0024"
   height="644.4884"
   viewBox="0 0 2164.0024 644.4884"
   version="1.1"
   id="svg1"
   xml:space="preserve"
   xmlns:inkscape="http://www.inkscape.org/namespaces/inkscape"
   xmlns:sodipodi="http://sodipodi.sourceforge.net/DTD/sodipodi-0.dtd"
   xmlns="http://www.w3.org/2000/svg"
   xmlns:svg="http://www.w3.org/2000/svg"><sodipodi:namedview
     id="namedview1"
     pagecolor="#ffffff"
     bordercolor="#000000"
     borderopacity="0.25"
     inkscape:showpageshadow="2"
     inkscape:pageopacity="0.0"
     inkscape:pagecheckerboard="0"
     inkscape:deskcolor="#d1d1d1"
     inkscape:document-units="px" /><defs
     id="defs1" /><g
     inkscape:label="Calque 1"
     inkscape:groupmode="layer"
     id="layer1"
     transform="translate(204.5323,139.73834)"><g
       id="g36"
       inkscape:export-filename="logo-text.svg"
       inkscape:export-xdpi="96"
       inkscape:export-ydpi="96"><g
         id="g4"
         style="clip-rule:evenodd;fill:#000000;fill-rule:evenodd;image-rendering:optimizeQuality;shape-rendering:geometricPrecision;text-rendering:geometricPrecision"
         transform="translate(-1765.0298,-825.23834)"><path
           style="opacity:1;fill:#000000"
           fill="#f9faf9"
           d="m 2996.5,685.5 c 6.57,0.724 11.4,4.057 14.5,10 4.91,8.403 7.58,17.403 8,27 -17.35,15.26 -36.18,28.427 -56.5,39.5 -2.8,0.755 -5.47,0.422 -8,-1 -7.99,-7.669 -11.82,-16.836 -11.5,-27.5 15.59,-18.773 33.43,-34.773 53.5,-48 z"
           id="path4" /></g><g
         id="g5"
         style="clip-rule:evenodd;fill:#000000;fill-rule:evenodd;image-rendering:optimizeQuality;shape-rendering:geometricPrecision;text-rendering:geometricPrecision"
         transform="translate(-1765.0298,-825.23834)"><path
           style="opacity:1;fill:#000000"
           fill="#f9faf9"
           d="m 3200.5,685.5 c 6.57,0.724 11.4,4.057 14.5,10 4.91,8.403 7.58,17.403 8,27 -17.35,15.26 -36.18,28.427 -56.5,39.5 -2.8,0.755 -5.47,0.422 -8,-1 -7.99,-7.669 -11.82,-16.836 -11.5,-27.5 15.59,-18.773 33.43,-34.773 53.5,-48 z"
           id="path5" /></g><g
         id="g6"
         style="clip-rule:evenodd;fill:#000000;fill-rule:evenodd;image-rendering:optimizeQuality;shape-rendering:geometricPrecision;text-rendering:geometricPrecision"
         transform="translate(-1765.0298,-825.23834)"><path
           style="opacity:1;fill:#000000"
           fill="#f9faf9"
           d="m 2553.5,783.5 c 13,-0.167 26,0 39,0.5 9.88,0.803 19.21,3.469 28,8 2.93,2.264 5.1,5.098 6.5,8.5 2.19,12.753 -0.98,23.919 -9.5,33.5 -7.99,-3.103 -16.33,-5.436 -25,-7 -13.27,-2.49 -25.93,-0.823 -38,5 -4.92,4.001 -7.58,9.168 -8,15.5 0.86,10.092 4.03,19.425 9.5,28 16.62,22.286 33.62,44.286 51,66 17.78,24.124 24.45,51.124 20,81 -1.84,26.55 -14.34,46.05 -37.5,58.5 -18.17,6.19 -36.83,8.19 -56,6 -40.89,-6.64 -50.05,-27.48 -27.5,-62.5 16.02,12.27 33.85,16.1 53.5,11.5 9.9,-4.59 15.07,-12.42 15.5,-23.5 1.25,-13.349 -1.75,-25.682 -9,-37 -17.33,-23.333 -34.67,-46.667 -52,-70 -19.24,-25.455 -24.24,-53.455 -15,-84 6.5,-14.5 17,-25 31.5,-31.5 7.59,-2.926 15.26,-5.093 23,-6.5 z"
           id="path6" /></g><g
         id="g7"
         style="clip-rule:evenodd;fill:#000000;fill-rule:evenodd;image-rendering:optimizeQuality;shape-rendering:geometricPrecision;text-rendering:geometricPrecision"
         transform="translate(-1765.0298,-825.23834)"><path
           style="opacity:1;fill:#000000"
           fill="#f9faf9"
           d="m 1573.5,786.5 c 12.33,0 24.67,0 37,0 -0.47,78.353 0.03,156.687 1.5,235 1.87,15.04 10.37,22.37 25.5,22 8.24,0.1 16.07,-1.57 23.5,-5 0.33,-82.667 0.67,-165.333 1,-248 0.9,-1.201 2.07,-2.035 3.5,-2.5 14.96,-1.355 29.96,-1.855 45,-1.5 0.17,95.334 0,190.667 -0.5,286 -22.85,11.01 -47.02,16.34 -72.5,16 -50.12,1.37 -75.62,-22.96 -76.5,-73 -0.67,-74.667 -0.67,-149.333 0,-224 0.37,-0.916 0.87,-1.75 1.5,-2.5 3.78,-0.918 7.45,-1.751 11,-2.5 z"
           id="path7" /></g><g
         id="g8"
         style="clip-rule:evenodd;fill:#000000;fill-rule:evenodd;image-rendering:optimizeQuality;shape-rendering:geometricPrecision;text-rendering:geometricPrecision"
         transform="translate(-1765.0298,-825.23834)"><path
           style="opacity:1;fill:#000000"
           fill="#f9faf9"
           d="m 1747.5,786.5 c 14.33,0 28.67,0 43,0 15.86,41.749 32.03,83.416 48.5,125 6.11,19.453 11.45,39.119 16,59 -3.25,-58.929 -4.25,-117.929 -3,-177 0.21,-2.923 1.71,-4.756 4.5,-5.5 14.63,-1.373 29.29,-1.873 44,-1.5 0.5,98.082 0,196.082 -1.5,294 -0.83,0.83 -1.67,1.67 -2.5,2.5 -14.34,0.83 -28.68,0.67 -43,-0.5 -14.74,-37.37 -29.57,-74.71 -44.5,-112 -8.4,-24.605 -15.4,-49.605 -21,-75 1,21.98 2,43.98 3,66 0.67,39 0.67,78 0,117 -1.07,3.06 -3.23,4.56 -6.5,4.5 -14,0.5 -28,0.67 -42,0.5 -0.17,-97.334 0,-194.667 0.5,-292 1.02,-2.187 2.52,-3.854 4.5,-5 z"
           id="path8" /></g><g
         id="g9"
         style="clip-rule:evenodd;fill:#000000;fill-rule:evenodd;image-rendering:optimizeQuality;shape-rendering:geometricPrecision;text-rendering:geometricPrecision"
         transform="translate(-1765.0298,-825.23834)"><path
           style="opacity:1;fill:#000000"
           fill="#f9faf9"
           d="m 1952.5,786.5 c 10,0 20,0 30,0 0.17,98.001 0,196.001 -0.5,294 -1.49,1.5 -3.32,2.34 -5.5,2.5 -14.33,0.5 -28.66,0.67 -43,0.5 -0.17,-95.001 0,-190.001 0.5,-285 0.32,-3.473 1.82,-6.306 4.5,-8.5 4.64,-1.777 9.3,-2.944 14,-3.5 z"
           id="path9" /></g><g
         id="g10"
         style="clip-rule:evenodd;fill:#000000;fill-rule:evenodd;image-rendering:optimizeQuality;shape-rendering:geometricPrecision;text-rendering:geometricPrecision"
         transform="translate(-1765.0298,-825.23834)"><path
           style="opacity:1;fill:#000000"
           fill="#f9faf9"
           d="m 2010.5,786.5 c 15.67,0 31.33,0 47,0 13.05,82.958 25.22,165.958 36.5,249 8.72,-81.32 19.72,-162.32 33,-243 0.83,-2.833 2.67,-4.667 5.5,-5.5 15.66,-0.5 31.33,-0.667 47,-0.5 -18.28,99.026 -36.78,198.026 -55.5,297 -16.02,2.67 -32.19,3.51 -48.5,2.5 -11.5,-3.1 -18.33,-10.6 -20.5,-22.5 -17.52,-87.445 -33.85,-175.112 -49,-263 -0.67,-3.667 -0.67,-7.333 0,-11 1.41,-1.281 2.91,-2.281 4.5,-3 z"
           id="path10" /></g><g
         id="g11"
         style="clip-rule:evenodd;fill:#000000;fill-rule:evenodd;image-rendering:optimizeQuality;shape-rendering:geometricPrecision;text-rendering:geometricPrecision"
         transform="translate(-1765.0298,-825.23834)"><path
           style="opacity:1;fill:#000000"
           fill="#f9faf9"
           d="m 2343.5,786.5 c 19,-0.167 38,0 57,0.5 19.37,0.229 36.2,6.729 50.5,19.5 9.76,12.266 15.43,26.266 17,42 2.45,20.445 1.78,40.778 -2,61 -3.21,17.93 -11.71,32.763 -25.5,44.5 18.64,27.249 29.81,57.42 33.5,90.5 1.49,11.3 2.15,22.64 2,34 -0.11,2.35 -1.28,3.85 -3.5,4.5 -3.25,1.04 -6.59,1.7 -10,2 -13.34,0.34 -26.67,0.17 -40,-0.5 0.53,-33.84 -5.31,-66.51 -17.5,-98 -2.53,-5.908 -5.7,-11.408 -9.5,-16.5 -2.98,-0.498 -5.98,-0.665 -9,-0.5 0.17,36.33 0,72.67 -0.5,109 -1.07,3.06 -3.23,4.56 -6.5,4.5 -14,0.5 -28,0.67 -42,0.5 -0.17,-97.001 0,-194.001 0.5,-291 1.02,-2.85 2.85,-4.85 5.5,-6 z m 43,42 c 4.68,-0.166 9.35,10e-4 14,0.5 3.69,1.089 6.52,3.255 8.5,6.5 2.59,5.035 4.26,10.368 5,16 2.03,17.041 1.7,34.041 -1,51 -1.65,16.158 -10.48,23.825 -26.5,23 0,-32.333 0,-64.667 0,-97 z"
           id="path11" /></g><g
         id="g12"
         style="clip-rule:evenodd;fill:#000000;fill-rule:evenodd;image-rendering:optimizeQuality;shape-rendering:geometricPrecision;text-rendering:geometricPrecision"
         transform="translate(-1765.0298,-825.23834)"><path
           style="opacity:1;fill:#000000"
           fill="#f9faf9"
           d="m 2673.5,786.5 c 10,0 20,0 30,0 0.17,98.001 0,196.001 -0.5,294 -1.49,1.5 -3.32,2.34 -5.5,2.5 -14.33,0.5 -28.66,0.67 -43,0.5 -0.17,-95.001 0,-190.001 0.5,-285 0.32,-3.473 1.82,-6.306 4.5,-8.5 4.64,-1.777 9.3,-2.944 14,-3.5 z"
           id="path12" /></g><g
         id="g13"
         style="clip-rule:evenodd;fill:#000000;fill-rule:evenodd;image-rendering:optimizeQuality;shape-rendering:geometricPrecision;text-rendering:geometricPrecision"
         transform="translate(-1765.0298,-825.23834)"><path
           style="opacity:1;fill:#000000"
           fill="#f9faf9"
           d="m 2733.5,786.5 c 49.33,0 98.67,0 148,0 0.17,13.671 0,27.337 -0.5,41 -0.37,0.916 -0.87,1.75 -1.5,2.5 -16.91,1.471 -33.91,1.971 -51,1.5 0.17,82.667 0,165.334 -0.5,248 -1.56,2.27 -3.72,3.43 -6.5,3.5 -14,0.5 -28,0.67 -42,0.5 0,-84 0,-168 0,-252 -17,0 -34,0 -51,0 -0.17,-13.671 0,-27.337 0.5,-41 0.91,-2.109 2.41,-3.442 4.5,-4 z"
           id="path13" /></g><g
         id="g14"
         style="clip-rule:evenodd;fill:#000000;fill-rule:evenodd;image-rendering:optimizeQuality;shape-rendering:geometricPrecision;text-rendering:geometricPrecision"
         transform="translate(-1765.0298,-825.23834)"><path
           style="opacity:1;fill:#000000"
           fill="#f9faf9"
           d="m 2911.5,786.5 c 35,0 70,0 105,0 0.17,11.671 0,23.338 -0.5,35 -0.23,2.958 -1.4,5.458 -3.5,7.5 -19.33,0.5 -38.66,0.667 -58,0.5 0,23.667 0,47.333 0,71 17,0 34,0 51,0 0.32,12.705 -0.18,25.372 -1.5,38 -0.45,2.019 -1.28,3.852 -2.5,5.5 -15.6,1.453 -31.26,1.953 -47,1.5 0,31.667 0,63.33 0,95 19.67,0 39.33,0 59,0 0.17,12 0,24 -0.5,36 -0.3,2.39 -1.14,4.56 -2.5,6.5 -35,0.5 -70,0.67 -105,0.5 -0.17,-96.667 0,-193.334 0.5,-290 0.94,-3.098 2.77,-5.431 5.5,-7 z"
           id="path14" /></g><g
         id="g15"
         style="clip-rule:evenodd;fill:#000000;fill-rule:evenodd;image-rendering:optimizeQuality;shape-rendering:geometricPrecision;text-rendering:geometricPrecision"
         transform="translate(-1765.0298,-825.23834)"><path
           style="opacity:1;fill:#000000"
           fill="#f9faf9"
           d="m 3115.5,786.5 c 35,0 70,0 105,0 0.17,11.671 0,23.338 -0.5,35 -0.23,2.958 -1.4,5.458 -3.5,7.5 -19.33,0.5 -38.66,0.667 -58,0.5 0,23.667 0,47.333 0,71 17,0 34,0 51,0 0.32,12.705 -0.18,25.372 -1.5,38 -0.45,2.019 -1.28,3.852 -2.5,5.5 -15.6,1.453 -31.26,1.953 -47,1.5 0,31.667 0,63.33 0,95 19.67,0 39.33,0 59,0 0.17,12 0,24 -0.5,36 -0.3,2.39 -1.14,4.56 -2.5,6.5 -35,0.5 -70,0.67 -105,0.5 -0.17,-96.667 0,-193.334 0.5,-290 0.94,-3.098 2.77,-5.431 5.5,-7 z"
           id="path15" /></g><g
         id="g16"
         style="clip-rule:evenodd;fill:#000000;fill-rule:evenodd;image-rendering:optimizeQuality;shape-rendering:geometricPrecision;text-rendering:geometricPrecision"
         transform="translate(-1765.0298,-825.23834)"><path
           style="opacity:1;fill:#000000"
           fill="#f9faf9"
           d="m 3239.5,786.5 c 15.67,0 31.33,0 47,0 13.05,82.958 25.22,165.958 36.5,249 8.72,-81.32 19.72,-162.32 33,-243 0.83,-2.833 2.67,-4.667 5.5,-5.5 15.66,-0.5 31.33,-0.667 47,-0.5 -18.28,99.026 -36.78,198.026 -55.5,297 -16.02,2.67 -32.19,3.51 -48.5,2.5 -11.5,-3.1 -18.33,-10.6 -20.5,-22.5 -17.52,-87.445 -33.85,-175.112 -49,-263 -0.67,-3.667 -0.67,-7.333 0,-11 1.41,-1.281 2.91,-2.281 4.5,-3 z"
           id="path16" /></g><g
         id="g17"
         style="clip-rule:evenodd;fill:#000000;fill-rule:evenodd;image-rendering:optimizeQuality;shape-rendering:geometricPrecision;text-rendering:geometricPrecision"
         transform="translate(-1765.0298,-825.23834)"><path
           style="opacity:1;fill:#000000"
           fill="#f9faf9"
           d="m 3436.5,786.5 c 19,-0.167 38,0 57,0.5 19.37,0.229 36.2,6.729 50.5,19.5 9.76,12.266 15.43,26.266 17,42 2.45,20.445 1.78,40.778 -2,61 -3.21,17.93 -11.71,32.763 -25.5,44.5 18.64,27.249 29.81,57.42 33.5,90.5 1.49,11.3 2.15,22.64 2,34 -0.11,2.35 -1.28,3.85 -3.5,4.5 -3.25,1.04 -6.59,1.7 -10,2 -13.34,0.34 -26.67,0.17 -40,-0.5 0.53,-33.84 -5.31,-66.51 -17.5,-98 -2.53,-5.908 -5.7,-11.408 -9.5,-16.5 -2.98,-0.498 -5.98,-0.665 -9,-0.5 0.17,36.33 0,72.67 -0.5,109 -1.07,3.06 -3.23,4.56 -6.5,4.5 -14,0.5 -28,0.67 -42,0.5 -0.17,-97.001 0,-194.001 0.5,-291 1.02,-2.85 2.85,-4.85 5.5,-6 z m 43,42 c 4.68,-0.166 9.35,10e-4 14,0.5 3.69,1.089 6.52,3.255 8.5,6.5 2.59,5.035 4.26,10.368 5,16 2.03,17.041 1.7,34.041 -1,51 -1.65,16.158 -10.48,23.825 -26.5,23 0,-32.333 0,-64.667 0,-97 z"
           id="path17" /></g><g
         id="g18"
         style="clip-rule:evenodd;fill:#000000;fill-rule:evenodd;image-rendering:optimizeQuality;shape-rendering:geometricPrecision;text-rendering:geometricPrecision"
         transform="translate(-1765.0298,-825.23834)"><path
           style="opacity:1;fill:#000000"
           fill="#f9faf9"
           d="m 3582.5,786.5 c 14.91,-0.324 29.74,0.009 44.5,1 10.75,41.775 18.42,84.108 23,127 5.43,-41.82 13.43,-83.154 24,-124 3.78,-2.415 7.94,-3.582 12.5,-3.5 12.68,-0.833 25.35,-0.666 38,0.5 -17.48,57.236 -34.64,114.569 -51.5,172 -0.33,40.333 -0.67,80.67 -1,121 -1.49,1.5 -3.32,2.34 -5.5,2.5 -14,0.5 -28,0.67 -42,0.5 0.17,-41 0,-82 -0.5,-123 -17.94,-56.308 -35.77,-112.641 -53.5,-169 0.37,-1.402 1.2,-2.402 2.5,-3 3.32,-0.55 6.49,-1.217 9.5,-2 z"
           id="path18" /></g><g
         id="g19"
         style="clip-rule:evenodd;fill:#000000;fill-rule:evenodd;image-rendering:optimizeQuality;shape-rendering:geometricPrecision;text-rendering:geometricPrecision"
         transform="translate(-1765.0298,-825.23834)"><path
           style="opacity:1;fill:#000000"
           fill="#f9faf9"
           d="m 2205.5,787.5 c 35.67,0 71.33,0 107,0 0.17,11.005 0,22.005 -0.5,33 -0.12,3.432 -1.28,6.432 -3.5,9 -19.62,0.988 -39.29,1.321 -59,1 0,23.333 0,46.667 0,70 17.33,0 34.67,0 52,0 0.22,12.363 -0.28,24.697 -1.5,37 -0.23,2.28 -1.07,4.28 -2.5,6 -15.95,0.985 -31.95,1.318 -48,1 0,32 0,64 0,96 20,0 40,0 60,0 0.4,13.38 -0.1,26.72 -1.5,40 -0.5,1.17 -1.33,2 -2.5,2.5 -34.67,0.5 -69.33,0.67 -104,0.5 -0.17,-96.667 0,-193.334 0.5,-290 0.56,-2.387 1.73,-4.387 3.5,-6 z"
           id="path19" /></g><g
         id="g20"
         style="clip-rule:evenodd;fill:#000000;fill-rule:evenodd;image-rendering:optimizeQuality;shape-rendering:geometricPrecision;text-rendering:geometricPrecision"
         transform="translate(-1765.0298,-825.23834)"><path
           style="opacity:1;fill:#000000"
           fill="#f9faf9"
           d="m 2079.5,1179.5 c 20.46,-2.34 39.8,1.16 58,10.5 -3.46,8.42 -7.3,16.59 -11.5,24.5 -13.1,-6.62 -26.94,-9.12 -41.5,-7.5 -9.04,3.79 -11.87,10.29 -8.5,19.5 1.83,1.83 3.67,3.67 5.5,5.5 14.82,7.24 29.15,15.24 43,24 13.22,13.54 16.72,29.37 10.5,47.5 -7.71,15.29 -20.21,23.79 -37.5,25.5 -19.09,2.59 -37.43,0.09 -55,-7.5 -1.17,-10.32 -1.33,-20.65 -0.5,-31 16.34,9.13 33.84,12.96 52.5,11.5 10.2,-2.9 13.7,-9.4 10.5,-19.5 -1.14,-2.11 -2.64,-3.94 -4.5,-5.5 -14.49,-7.75 -28.83,-15.75 -43,-24 -12.26,-11.2 -16.76,-25.03 -13.5,-41.5 2.25,-11.93 8.75,-20.76 19.5,-26.5 5.35,-2.17 10.68,-4 16,-5.5 z"
           id="path20" /></g><g
         id="g21"
         style="clip-rule:evenodd;fill:#000000;fill-rule:evenodd;image-rendering:optimizeQuality;shape-rendering:geometricPrecision;text-rendering:geometricPrecision"
         transform="translate(-1765.0298,-825.23834)"><path
           style="opacity:1;fill:#000000"
           fill="#f9faf9"
           d="m 2267.5,1179.5 c 20.46,-2.34 39.8,1.16 58,10.5 -3.46,8.42 -7.3,16.59 -11.5,24.5 -13.1,-6.62 -26.94,-9.12 -41.5,-7.5 -9.04,3.79 -11.87,10.29 -8.5,19.5 1.83,1.83 3.67,3.67 5.5,5.5 14.82,7.24 29.15,15.24 43,24 13.22,13.54 16.72,29.37 10.5,47.5 -7.71,15.29 -20.21,23.79 -37.5,25.5 -19.09,2.59 -37.43,0.09 -55,-7.5 -1.17,-10.32 -1.33,-20.65 -0.5,-31 16.34,9.13 33.84,12.96 52.5,11.5 10.2,-2.9 13.7,-9.4 10.5,-19.5 -1.14,-2.11 -2.64,-3.94 -4.5,-5.5 -14.49,-7.75 -28.83,-15.75 -43,-24 -12.26,-11.2 -16.76,-25.03 -13.5,-41.5 2.25,-11.93 8.75,-20.76 19.5,-26.5 5.35,-2.17 10.68,-4 16,-5.5 z"
           id="path21" /></g><g
         id="g22"
         style="clip-rule:evenodd;fill:#000000;fill-rule:evenodd;image-rendering:optimizeQuality;shape-rendering:geometricPrecision;text-rendering:geometricPrecision"
         transform="translate(-1765.0298,-825.23834)"><path
           style="opacity:1;fill:#000000"
           fill="#f9faf9"
           d="m 2550.5,1179.5 c 16.07,-1.33 31.73,0.51 47,5.5 3.82,1.07 7.15,2.91 10,5.5 -3.24,8.22 -6.57,16.39 -10,24.5 -6.62,-2.1 -13.29,-4.43 -20,-7 -24.89,-6.14 -40.73,3.02 -47.5,27.5 -9.44,59.73 14.39,79.73 71.5,60 0.32,9.25 -0.02,18.42 -1,27.5 -19.2,6.6 -38.87,8.27 -59,5 -24.91,-7.25 -39.74,-23.75 -44.5,-49.5 -4.25,-21.94 -2.25,-43.27 6,-64 10.05,-19.55 25.88,-31.22 47.5,-35 z"
           id="path22" /></g><g
         id="g23"
         style="clip-rule:evenodd;fill:#000000;fill-rule:evenodd;image-rendering:optimizeQuality;shape-rendering:geometricPrecision;text-rendering:geometricPrecision"
         transform="translate(-1765.0298,-825.23834)"><path
           style="opacity:1;fill:#000000"
           fill="#f9faf9"
           d="m 1726.5,1180.5 c 13,-0.17 26,0 39,0.5 17.46,48.43 34.8,96.93 52,145.5 -11.65,1 -23.31,1.33 -35,1 -3.33,-11.67 -6.67,-23.33 -10,-35 -17.34,-0.17 -34.67,0 -52,0.5 -3.87,11.27 -7.53,22.6 -11,34 -11.67,0.67 -23.33,0.67 -35,0 17.76,-48.68 35.09,-97.52 52,-146.5 z m 19,26 c 6.93,19.7 13.27,39.7 19,60 -12,0 -24,0 -36,0 5.98,-19.92 11.65,-39.92 17,-60 z"
           id="path23" /></g><g
         id="g24"
         style="clip-rule:evenodd;fill:#000000;fill-rule:evenodd;image-rendering:optimizeQuality;shape-rendering:geometricPrecision;text-rendering:geometricPrecision"
         transform="translate(-1765.0298,-825.23834)"><path
           style="opacity:1;fill:#000000"
           fill="#f9faf9"
           d="m 2388.5,1180.5 c 13,-0.17 26,0 39,0.5 17.46,48.43 34.8,96.93 52,145.5 -11.65,1 -23.31,1.33 -35,1 -3.33,-11.67 -6.67,-23.33 -10,-35 -17.34,-0.17 -34.67,0 -52,0.5 -3.87,11.27 -7.53,22.6 -11,34 -11.67,0.67 -23.33,0.67 -35,0 17.76,-48.68 35.09,-97.52 52,-146.5 z m 19,26 c 6.93,19.7 13.27,39.7 19,60 -12,0 -24,0 -36,0 5.98,-19.92 11.65,-39.92 17,-60 z"
           id="path24" /></g><g
         id="g25"
         style="clip-rule:evenodd;fill:#000000;fill-rule:evenodd;image-rendering:optimizeQuality;shape-rendering:geometricPrecision;text-rendering:geometricPrecision"
         transform="translate(-1765.0298,-825.23834)"><path
           style="opacity:1;fill:#000000"
           fill="#f9faf9"
           d="m 2789.5,1180.5 c 13,-0.17 26,0 39,0.5 17.46,48.43 34.8,96.93 52,145.5 -11.65,1 -23.31,1.33 -35,1 -3.33,-11.67 -6.67,-23.33 -10,-35 -17.34,-0.17 -34.67,0 -52,0.5 -3.87,11.27 -7.53,22.6 -11,34 -11.67,0.67 -23.33,0.67 -35,0 17.76,-48.68 35.09,-97.52 52,-146.5 z m 19,26 c 6.93,19.7 13.27,39.7 19,60 -12,0 -24,0 -36,0 5.98,-19.92 11.65,-39.92 17,-60 z"
           id="path25" /></g><g
         id="g26"
         style="clip-rule:evenodd;fill:#000000;fill-rule:evenodd;image-rendering:optimizeQuality;shape-rendering:geometricPrecision;text-rendering:geometricPrecision"
         transform="translate(-1765.0298,-825.23834)"><path
           style="opacity:1;fill:#000000"
           fill="#f9faf9"
           d="m 1560.5,1181.5 c 20.67,-0.17 41.34,0 62,0.5 30.02,5.15 43.19,22.99 39.5,53.5 -3.99,23.32 -17.82,36.49 -41.5,39.5 -9.33,0.5 -18.66,0.67 -28,0.5 0,17.33 0,34.67 0,52 -10.67,0 -21.33,0 -32,0 0,-48.67 0,-97.33 0,-146 z m 32,25 c 7.7,0.02 15.36,0.52 23,1.5 9.93,2.93 14.93,9.6 15,20 -0.62,11.62 -6.62,18.62 -18,21 -6.66,0.71 -13.32,1.21 -20,1.5 0,-14.67 0,-29.33 0,-44 z"
           id="path26" /></g><g
         id="g27"
         style="clip-rule:evenodd;fill:#000000;fill-rule:evenodd;image-rendering:optimizeQuality;shape-rendering:geometricPrecision;text-rendering:geometricPrecision"
         transform="translate(-1765.0298,-825.23834)"><path
           style="opacity:1;fill:#000000"
           fill="#f9faf9"
           d="m 1839.5,1181.5 c 20,-0.17 40,0 60,0.5 34.21,5.22 47.38,24.72 39.5,58.5 -5.31,10.47 -13.14,18.47 -23.5,24 13.63,21.09 27.63,41.93 42,62.5 -12,0.67 -24,0.67 -36,0 -11.67,-18.33 -23.33,-36.67 -35,-55 -4.99,-0.5 -9.99,-0.67 -15,-0.5 0,18.67 0,37.33 0,56 -10.67,0 -21.33,0 -32,0 0,-48.67 0,-97.33 0,-146 z m 32,25 c 7,0.42 14,0.92 21,1.5 14.2,2.89 19.37,11.39 15.5,25.5 -3.04,6.61 -8.21,10.45 -15.5,11.5 -6.99,0.67 -13.99,1.17 -21,1.5 0,-13.33 0,-26.67 0,-40 z"
           id="path27" /></g><g
         id="g28"
         style="clip-rule:evenodd;fill:#000000;fill-rule:evenodd;image-rendering:optimizeQuality;shape-rendering:geometricPrecision;text-rendering:geometricPrecision"
         transform="translate(-1765.0298,-825.23834)"><path
           style="opacity:1;fill:#000000"
           fill="#f9faf9"
           d="m 1978.5,1181.5 c 10.67,0 21.33,0 32,0 0,48.67 0,97.33 0,146 -10.67,0 -21.33,0 -32,0 0,-48.67 0,-97.33 0,-146 z"
           id="path28" /></g><g
         id="g29"
         style="clip-rule:evenodd;fill:#000000;fill-rule:evenodd;image-rendering:optimizeQuality;shape-rendering:geometricPrecision;text-rendering:geometricPrecision"
         transform="translate(-1765.0298,-825.23834)"><path
           style="opacity:1;fill:#000000"
           fill="#f9faf9"
           d="m 2636.5,1181.5 c 10.67,0 21.33,0 32,0 0,40 0,80 0,120 19.67,0 39.33,0 59,0 0,8.67 0,17.33 0,26 -30.33,0 -60.67,0 -91,0 0,-48.67 0,-97.33 0,-146 z"
           id="path29" /></g><g
         id="g30"
         style="clip-rule:evenodd;fill:#000000;fill-rule:evenodd;image-rendering:optimizeQuality;shape-rendering:geometricPrecision;text-rendering:geometricPrecision"
         transform="translate(-1765.0298,-825.23834)"><path
           style="opacity:1;fill:#000000"
           fill="#f9faf9"
           d="m 2884.5,1181.5 c 11.69,-0.33 23.35,0 35,1 9.41,19.16 19.08,38.16 29,57 9.92,-18.84 19.59,-37.84 29,-57 11.67,-1.33 23.33,-1.33 35,0 -16.09,29.17 -31.92,58.51 -47.5,88 -0.5,19 -0.67,38 -0.5,57 -10.67,0 -21.33,0 -32,0 0.17,-18.67 0,-37.34 -0.5,-56 -16.11,-29.9 -31.95,-59.9 -47.5,-90 z"
           id="path30" /></g><g
         id="g32"
         style="clip-rule:evenodd;fill:#000000;fill-rule:evenodd;image-rendering:optimizeQuality;shape-rendering:geometricPrecision;text-rendering:geometricPrecision"
         transform="translate(-1765.0298,-825.23834)"><path
           style="opacity:1;fill:#000000"
           fill="#f9faf9"
           d="m 2156.5,1260.5 c 18,0 36,0 54,0 0,8.67 0,17.33 0,26 -18,0 -36,0 -54,0 0,-8.67 0,-17.33 0,-26 z"
           id="path32" /></g></g></g></svg>
